<?xml version="1.0" encoding="UTF-8"?>
<svg width="700pt" height="700pt" version="1.1" viewBox="0 0 700 700" xmlns="http://www.w3.org/2000/svg" xmlns:xlink="http://www.w3.org/1999/xlink">
 <g>
  <path fill=' hsl(35, 75%, 50%)' d="m577.5 245c-7.7383 0.023438-15.254 2.6133-21.363 7.3633-6.1133 4.75-10.477 11.391-12.41 18.887h-45.414c-1.3281-23.355-8.1953-46.062-20.039-66.238l60.289-40.25c2.4492-1.6055 3.9297-4.332 3.9375-7.2617v-36.227c11.094-2.8633 20.082-10.977 24.066-21.715 3.9844-10.742 2.457-22.754-4.0859-32.16s-17.273-15.012-28.73-15.012-22.188 5.6055-28.73 15.012-8.0703 21.418-4.0859 32.16c3.9844 10.738 12.973 18.852 24.066 21.715v31.5l-56.523 37.711v0.003906c-26.18-34.746-66.297-56.246-109.73-58.801v-45.414c11.094-2.8633 20.082-10.977 24.066-21.715 3.9844-10.742 2.457-22.754-4.0859-32.16s-17.273-15.012-28.73-15.012-22.188 5.6055-28.73 15.012-8.0703 21.418-4.0859 32.16c3.9844 10.738 12.973 18.852 24.066 21.715v45.414c-43.43 2.5547-83.547 24.055-109.73 58.801l-56.523-37.715v-31.5c11.094-2.8633 20.082-10.977 24.066-21.715 3.9844-10.742 2.457-22.754-4.0859-32.16s-17.273-15.012-28.73-15.012-22.188 5.6055-28.73 15.012-8.0703 21.418-4.0859 32.16c3.9844 10.738 12.973 18.852 24.066 21.715v36.227c0.007812 2.9297 1.4883 5.6562 3.9375 7.2617l60.289 40.25c-11.844 20.176-18.711 42.883-20.039 66.238h-45.414c-2.8633-11.094-10.977-20.082-21.715-24.066-10.742-3.9844-22.754-2.457-32.16 4.0859s-15.012 17.273-15.012 28.73 5.6055 22.188 15.012 28.73 21.418 8.0703 32.16 4.0859c10.738-3.9844 18.852-12.973 21.715-24.066h45.414c1.3281 23.355 8.1953 46.062 20.039 66.238l-60.289 40.25c-2.4492 1.6055-3.9297 4.332-3.9375 7.2617v36.227c-11.094 2.8633-20.082 10.977-24.066 21.715-3.9844 10.742-2.457 22.754 4.0859 32.16s17.273 15.012 28.73 15.012 22.188-5.6055 28.73-15.012 8.0703-21.418 4.0859-32.16c-3.9844-10.738-12.973-18.852-24.066-21.715v-31.5l56.523-37.711v-0.003906c26.18 34.746 66.297 56.246 109.73 58.801v45.414c-11.094 2.8633-20.082 10.977-24.066 21.715-3.9844 10.742-2.457 22.754 4.0859 32.16s17.273 15.012 28.73 15.012 22.188-5.6055 28.73-15.012 8.0703-21.418 4.0859-32.16c-3.9844-10.738-12.973-18.852-24.066-21.715v-45.414c43.43-2.5547 83.547-24.055 109.73-58.801l56.523 37.715v31.5c-11.094 2.8633-20.082 10.977-24.066 21.715-3.9844 10.742-2.457 22.754 4.0859 32.16s17.273 15.012 28.73 15.012 22.188-5.6055 28.73-15.012 8.0703-21.418 4.0859-32.16c-3.9844-10.738-12.973-18.852-24.066-21.715v-36.227c-0.007812-2.9297-1.4883-5.6562-3.9375-7.2617l-60.289-40.25c11.844-20.176 18.711-42.883 20.039-66.238h45.414c2.2031 8.4766 7.5117 15.816 14.871 20.566 7.3633 4.75 16.238 6.5625 24.871 5.0781 8.6328-1.4805 16.395-6.1523 21.746-13.086 5.3516-6.9336 7.9062-15.625 7.1562-24.352-0.75-8.7305-4.75-16.855-11.207-22.773-6.4609-5.918-14.906-9.1953-23.664-9.1836zm-455 52.5c-4.6406 0-9.0938-1.8438-12.375-5.125s-5.125-7.7344-5.125-12.375 1.8438-9.0938 5.125-12.375 7.7344-5.125 12.375-5.125 9.0938 1.8438 12.375 5.125 5.125 7.7344 5.125 12.375c-0.011719 4.6367-1.8633 9.082-5.1406 12.359s-7.7227 5.1289-12.359 5.1406zm210-245c0-4.6406 1.8438-9.0938 5.125-12.375s7.7344-5.125 12.375-5.125 9.0938 1.8438 12.375 5.125 5.125 7.7344 5.125 12.375-1.8438 9.0938-5.125 12.375-7.7344 5.125-12.375 5.125c-4.6367-0.011719-9.082-1.8633-12.359-5.1406s-5.1289-7.7227-5.1406-12.359zm35 455c0 4.6406-1.8438 9.0938-5.125 12.375s-7.7344 5.125-12.375 5.125-9.0938-1.8438-12.375-5.125-5.125-7.7344-5.125-12.375 1.8438-9.0938 5.125-12.375 7.7344-5.125 12.375-5.125c4.6367 0.011719 9.082 1.8633 12.359 5.1406s5.1289 7.7227 5.1406 12.359zm-17.5-96.25c-34.809 0-68.195-13.828-92.809-38.441-24.613-24.613-38.441-58-38.441-92.809s13.828-68.195 38.441-92.809c24.613-24.613 58-38.441 92.809-38.441s68.195 13.828 92.809 38.441c24.613 24.613 38.441 58 38.441 92.809-0.042969 34.797-13.883 68.156-38.488 92.762s-57.965 38.445-92.762 38.488zm227.5-113.75c-4.6406 0-9.0938-1.8438-12.375-5.125s-5.125-7.7344-5.125-12.375 1.8438-9.0938 5.125-12.375 7.7344-5.125 12.375-5.125 9.0938 1.8438 12.375 5.125 5.125 7.7344 5.125 12.375c-0.011719 4.6367-1.8633 9.082-5.1406 12.359s-7.7227 5.1289-12.359 5.1406zm-227.5-131.25c-30.168 0-59.102 11.984-80.434 33.316-21.332 21.332-33.316 50.266-33.316 80.434s11.984 59.102 33.316 80.434c21.332 21.332 50.266 33.316 80.434 33.316s59.102-11.984 80.434-33.316c21.332-21.332 33.316-50.266 33.316-80.434-0.027344-30.16-12.023-59.074-33.348-80.402-21.328-21.324-50.242-33.32-80.402-33.348zm13.125 166.25h-4.375v8.75c0 4.832-3.918 8.75-8.75 8.75s-8.75-3.918-8.75-8.75v-8.75h-26.25c-4.832 0-8.75-3.918-8.75-8.75s3.918-8.75 8.75-8.75h8.75v-70h-8.75c-4.832 0-8.75-3.918-8.75-8.75s3.918-8.75 8.75-8.75h26.25v-8.75c0-4.832 3.918-8.75 8.75-8.75s8.75 3.918 8.75 8.75v9.1875c10.578 1.4609 19.613 8.3594 23.809 18.18 4.1914 9.8203 2.9258 21.121-3.332 29.77 7.6094 4.6953 12.781 12.484 14.16 21.32 1.375 8.832-1.1836 17.828-7.0039 24.617-5.8164 6.7852-14.316 10.688-23.258 10.676zm13.125-30.625c0.003906 3.4805-1.375 6.8242-3.8398 9.2852-2.4609 2.4648-5.8047 3.8438-9.2852 3.8398h-21.875v-26.25h21.875c3.4805-0.003906 6.8242 1.375 9.2852 3.8398 2.4648 2.4609 3.8438 5.8047 3.8398 9.2852zm-21.875-30.625h-13.125v-26.25h13.125c7.25 0 13.125 5.875 13.125 13.125s-5.875 13.125-13.125 13.125z"/>
  <use x="70" y="691.25" xlink:href="#n"/>
  <use x="102.109375" y="691.25" xlink:href="#h"/>
  <use x="123.683594" y="691.25" xlink:href="#b"/>
  <use x="153.355469" y="691.25" xlink:href="#a"/>
  <use x="182.878906" y="691.25" xlink:href="#g"/>
  <use x="203.792969" y="691.25" xlink:href="#b"/>
  <use x="233.464844" y="691.25" xlink:href="#f"/>
  <use x="280.011719" y="691.25" xlink:href="#e"/>
  <use x="311.328125" y="691.25" xlink:href="#d"/>
  <use x="355.078125" y="691.25" xlink:href="#c"/>
  <use x="391.695312" y="691.25" xlink:href="#a"/>
  <use x="421.21875" y="691.25" xlink:href="#m"/>
  <use x="461.636719" y="691.25" xlink:href="#l"/>
  <use x="476.632812" y="691.25" xlink:href="#k"/>
  <use x="502.566406" y="691.25" xlink:href="#j"/>
  <use x="532.621094" y="691.25" xlink:href="#i"/>
 </g>
</svg>
